# MagicaVoxel @ Ephtracy

# group
g Road2

# material
mtllib Road2.mtl
usemtl palette

# normals
vn -1 0 0
vn 1 0 0
vn 0 0 1
vn 0 0 -1
vn 0 -1 0
vn 0 1 0

# texcoords
vt 0.958984 0.5
vt 0.966797 0.5
vt 0.970703 0.5
vt 0.994141 0.5

# verts
v -48.5 0 63
v -48.5 0 -63
v -48.5 1 63
v -48.5 1 -63
v -48.5 2 63
v -48.5 2 -63
v -43.5 2 63
v -43.5 2 -63
v -43.5 3 63
v -43.5 3 -63
v -4.5 2 63
v -4.5 2 -63
v -4.5 3 63
v -4.5 3 -63
v 2.5 2 63
v 2.5 2 -63
v 2.5 3 63
v 2.5 3 -63
v 41.5 2 63
v 41.5 2 -63
v 41.5 3 63
v 41.5 3 -63
v -41.5 2 63
v -41.5 2 -63
v -41.5 3 63
v -41.5 3 -63
v -2.5 2 63
v -2.5 2 -63
v -2.5 3 63
v -2.5 3 -63
v 4.5 2 63
v 4.5 2 -63
v 4.5 3 63
v 4.5 3 -63
v 43.5 2 63
v 43.5 2 -63
v 43.5 3 63
v 43.5 3 -63
v 48.5 0 63
v 48.5 0 -63
v 48.5 1 63
v 48.5 1 -63
v 48.5 2 63
v 48.5 2 -63
v -48.5 0 63
v -48.5 1 63
v -48.5 2 63
v -43.5 2 63
v -43.5 3 63
v -41.5 1 63
v -41.5 2 63
v -41.5 3 63
v -4.5 1 63
v -4.5 2 63
v -4.5 3 63
v -2.5 2 63
v -2.5 3 63
v 2.5 2 63
v 2.5 3 63
v 4.5 1 63
v 4.5 2 63
v 4.5 3 63
v 41.5 1 63
v 41.5 2 63
v 41.5 3 63
v 43.5 2 63
v 43.5 3 63
v 48.5 0 63
v 48.5 1 63
v 48.5 2 63
v -48.5 0 -63
v -48.5 1 -63
v -48.5 2 -63
v -43.5 2 -63
v -43.5 3 -63
v -41.5 1 -63
v -41.5 2 -63
v -41.5 3 -63
v -4.5 1 -63
v -4.5 2 -63
v -4.5 3 -63
v -2.5 2 -63
v -2.5 3 -63
v 2.5 2 -63
v 2.5 3 -63
v 4.5 1 -63
v 4.5 2 -63
v 4.5 3 -63
v 41.5 1 -63
v 41.5 2 -63
v 41.5 3 -63
v 43.5 2 -63
v 43.5 3 -63
v 48.5 0 -63
v 48.5 1 -63
v 48.5 2 -63
v -48.5 0 63
v 48.5 0 63
v -48.5 0 -63
v 48.5 0 -63
v -48.5 2 63
v -43.5 2 63
v -41.5 2 63
v -4.5 2 63
v -2.5 2 63
v 2.5 2 63
v 4.5 2 63
v 41.5 2 63
v 43.5 2 63
v 48.5 2 63
v -23.5 2 55
v -22.5 2 55
v 22.5 2 55
v 23.5 2 55
v -23.5 2 34
v -22.5 2 34
v 22.5 2 34
v 23.5 2 34
v -23.5 2 24
v -22.5 2 24
v 22.5 2 24
v 23.5 2 24
v -23.5 2 3
v -22.5 2 3
v 22.5 2 3
v 23.5 2 3
v -23.5 2 -8
v -22.5 2 -8
v 22.5 2 -8
v 23.5 2 -8
v -23.5 2 -29
v -22.5 2 -29
v 22.5 2 -29
v 23.5 2 -29
v -23.5 2 -40
v -22.5 2 -40
v 22.5 2 -40
v 23.5 2 -40
v -23.5 2 -61
v -22.5 2 -61
v 22.5 2 -61
v 23.5 2 -61
v -48.5 2 -63
v -43.5 2 -63
v -41.5 2 -63
v -4.5 2 -63
v -2.5 2 -63
v 2.5 2 -63
v 4.5 2 -63
v 41.5 2 -63
v 43.5 2 -63
v 48.5 2 -63
v -43.5 3 63
v -41.5 3 63
v -4.5 3 63
v -2.5 3 63
v 2.5 3 63
v 4.5 3 63
v 41.5 3 63
v 43.5 3 63
v -43.5 3 -63
v -41.5 3 -63
v -4.5 3 -63
v -2.5 3 -63
v 2.5 3 -63
v 4.5 3 -63
v 41.5 3 -63
v 43.5 3 -63

# faces
f 3/4/1 2/4/1 1/4/1
f 4/4/1 2/4/1 3/4/1
f 5/2/1 4/2/1 3/2/1
f 6/2/1 4/2/1 5/2/1
f 9/2/1 8/2/1 7/2/1
f 10/2/1 8/2/1 9/2/1
f 13/2/1 12/2/1 11/2/1
f 14/2/1 12/2/1 13/2/1
f 17/2/1 16/2/1 15/2/1
f 18/2/1 16/2/1 17/2/1
f 21/2/1 20/2/1 19/2/1
f 22/2/1 20/2/1 21/2/1
f 23/2/2 24/2/2 25/2/2
f 25/2/2 24/2/2 26/2/2
f 27/2/2 28/2/2 29/2/2
f 29/2/2 28/2/2 30/2/2
f 31/2/2 32/2/2 33/2/2
f 33/2/2 32/2/2 34/2/2
f 35/2/2 36/2/2 37/2/2
f 37/2/2 36/2/2 38/2/2
f 39/4/2 40/4/2 41/4/2
f 41/4/2 40/4/2 42/4/2
f 41/2/2 42/2/2 43/2/2
f 43/2/2 42/2/2 44/2/2
f 48/2/3 47/2/3 46/2/3
f 50/4/3 46/4/3 45/4/3
f 50/2/3 49/2/3 48/2/3
f 50/2/3 48/2/3 46/2/3
f 51/2/3 49/2/3 50/2/3
f 52/2/3 49/2/3 51/2/3
f 53/4/3 50/4/3 45/4/3
f 53/3/3 51/3/3 50/3/3
f 54/3/3 51/3/3 53/3/3
f 56/2/3 54/2/3 53/2/3
f 56/2/3 55/2/3 54/2/3
f 57/2/3 55/2/3 56/2/3
f 58/2/3 56/2/3 53/2/3
f 60/4/3 53/4/3 45/4/3
f 60/2/3 59/2/3 58/2/3
f 60/2/3 58/2/3 53/2/3
f 61/2/3 59/2/3 60/2/3
f 62/2/3 59/2/3 61/2/3
f 63/4/3 60/4/3 45/4/3
f 63/3/3 61/3/3 60/3/3
f 64/3/3 61/3/3 63/3/3
f 66/2/3 64/2/3 63/2/3
f 66/2/3 65/2/3 64/2/3
f 67/2/3 65/2/3 66/2/3
f 68/4/3 63/4/3 45/4/3
f 69/2/3 66/2/3 63/2/3
f 69/4/3 63/4/3 68/4/3
f 70/2/3 66/2/3 69/2/3
f 72/2/4 73/2/4 74/2/4
f 71/4/4 72/4/4 76/4/4
f 74/2/4 75/2/4 76/2/4
f 72/2/4 74/2/4 76/2/4
f 76/2/4 75/2/4 77/2/4
f 77/2/4 75/2/4 78/2/4
f 71/4/4 76/4/4 79/4/4
f 76/3/4 77/3/4 79/3/4
f 79/3/4 77/3/4 80/3/4
f 79/2/4 80/2/4 82/2/4
f 80/2/4 81/2/4 82/2/4
f 82/2/4 81/2/4 83/2/4
f 79/2/4 82/2/4 84/2/4
f 71/4/4 79/4/4 86/4/4
f 84/2/4 85/2/4 86/2/4
f 79/2/4 84/2/4 86/2/4
f 86/2/4 85/2/4 87/2/4
f 87/2/4 85/2/4 88/2/4
f 71/4/4 86/4/4 89/4/4
f 86/3/4 87/3/4 89/3/4
f 89/3/4 87/3/4 90/3/4
f 89/2/4 90/2/4 92/2/4
f 90/2/4 91/2/4 92/2/4
f 92/2/4 91/2/4 93/2/4
f 71/4/4 89/4/4 94/4/4
f 89/2/4 92/2/4 95/2/4
f 94/4/4 89/4/4 95/4/4
f 95/2/4 92/2/4 96/2/4
f 99/4/5 98/4/5 97/4/5
f 100/4/5 98/4/5 99/4/5
f 103/3/6 104/3/6 111/3/6
f 111/3/6 104/3/6 112/3/6
f 107/3/6 108/3/6 113/3/6
f 113/3/6 108/3/6 114/3/6
f 103/3/6 111/3/6 115/3/6
f 111/1/6 112/1/6 115/1/6
f 112/3/6 104/3/6 116/3/6
f 115/1/6 112/1/6 116/1/6
f 113/1/6 114/1/6 117/1/6
f 107/3/6 113/3/6 117/3/6
f 114/3/6 108/3/6 118/3/6
f 117/1/6 114/1/6 118/1/6
f 103/3/6 115/3/6 119/3/6
f 115/3/6 116/3/6 119/3/6
f 116/3/6 104/3/6 120/3/6
f 119/3/6 116/3/6 120/3/6
f 107/3/6 117/3/6 121/3/6
f 117/3/6 118/3/6 121/3/6
f 118/3/6 108/3/6 122/3/6
f 121/3/6 118/3/6 122/3/6
f 103/3/6 119/3/6 123/3/6
f 119/1/6 120/1/6 123/1/6
f 120/3/6 104/3/6 124/3/6
f 123/1/6 120/1/6 124/1/6
f 107/3/6 121/3/6 125/3/6
f 121/1/6 122/1/6 125/1/6
f 122/3/6 108/3/6 126/3/6
f 125/1/6 122/1/6 126/1/6
f 103/3/6 123/3/6 127/3/6
f 123/3/6 124/3/6 127/3/6
f 124/3/6 104/3/6 128/3/6
f 127/3/6 124/3/6 128/3/6
f 107/3/6 125/3/6 129/3/6
f 125/3/6 126/3/6 129/3/6
f 126/3/6 108/3/6 130/3/6
f 129/3/6 126/3/6 130/3/6
f 103/3/6 127/3/6 131/3/6
f 127/1/6 128/1/6 131/1/6
f 128/3/6 104/3/6 132/3/6
f 131/1/6 128/1/6 132/1/6
f 107/3/6 129/3/6 133/3/6
f 129/1/6 130/1/6 133/1/6
f 130/3/6 108/3/6 134/3/6
f 133/1/6 130/1/6 134/1/6
f 103/3/6 131/3/6 135/3/6
f 131/3/6 132/3/6 135/3/6
f 132/3/6 104/3/6 136/3/6
f 135/3/6 132/3/6 136/3/6
f 107/3/6 133/3/6 137/3/6
f 133/3/6 134/3/6 137/3/6
f 134/3/6 108/3/6 138/3/6
f 137/3/6 134/3/6 138/3/6
f 103/3/6 135/3/6 139/3/6
f 135/1/6 136/1/6 139/1/6
f 136/3/6 104/3/6 140/3/6
f 139/1/6 136/1/6 140/1/6
f 107/3/6 137/3/6 141/3/6
f 137/1/6 138/1/6 141/1/6
f 138/3/6 108/3/6 142/3/6
f 141/1/6 138/1/6 142/1/6
f 101/2/6 102/2/6 143/2/6
f 143/2/6 102/2/6 144/2/6
f 103/3/6 139/3/6 145/3/6
f 139/3/6 140/3/6 145/3/6
f 140/3/6 104/3/6 146/3/6
f 145/3/6 140/3/6 146/3/6
f 105/2/6 106/2/6 147/2/6
f 147/2/6 106/2/6 148/2/6
f 107/3/6 141/3/6 149/3/6
f 141/3/6 142/3/6 149/3/6
f 142/3/6 108/3/6 150/3/6
f 149/3/6 142/3/6 150/3/6
f 109/2/6 110/2/6 151/2/6
f 151/2/6 110/2/6 152/2/6
f 153/2/6 154/2/6 161/2/6
f 161/2/6 154/2/6 162/2/6
f 155/2/6 156/2/6 163/2/6
f 163/2/6 156/2/6 164/2/6
f 157/2/6 158/2/6 165/2/6
f 165/2/6 158/2/6 166/2/6
f 159/2/6 160/2/6 167/2/6
f 167/2/6 160/2/6 168/2/6
